<svg width="46" height="45" viewBox="0 0 46 45" fill="none" xmlns="http://www.w3.org/2000/svg">
<g clip-path="url(#clip0_28_64)">
<path d="M22.5 35.3335C19.9917 33.8853 17.1464 33.1229 14.25 33.1229C11.3536 33.1229 8.50832 33.8853 6 35.3335V11.5001C8.50832 10.052 11.3536 9.28955 14.25 9.28955C17.1464 9.28955 19.9917 10.052 22.5 11.5001M22.5 35.3335C25.0083 33.8853 27.8536 33.1229 30.75 33.1229C33.6464 33.1229 36.4917 33.8853 39 35.3335V11.5001C36.4917 10.052 33.6464 9.28955 30.75 9.28955C27.8536 9.28955 25.0083 10.052 22.5 11.5001M22.5 35.3335V11.5001" stroke="white" stroke-width="4" stroke-linecap="round" stroke-linejoin="round"/>
</g>
<defs>
<clipPath id="clip0_28_64">
<rect width="44.8454" height="44.8454" fill="white" transform="translate(0.525757 0.0258789)"/>
</clipPath>
</defs>
</svg>
