<?xml version="1.0" encoding="UTF-8"?>
<svg id="_Слой_2" data-name="Слой_2" xmlns="http://www.w3.org/2000/svg" viewBox="0 0 245.3 62.41">
  <defs>
    <style>
      .cls-1 {
        fill: #f28b41;
      }
    </style>
  </defs>
  <g id="_Слой_1-2" data-name="Слой_1">
    <g>
      <g>
        <path class="cls-1" d="M31.21,62.41C14,62.41,0,48.41,0,31.21S14,0,31.21,0s31.21,14,31.21,31.21-14,31.21-31.21,31.21ZM31.21,2.97C15.64,2.97,2.97,15.64,2.97,31.21s12.67,28.23,28.23,28.23,28.23-12.67,28.23-28.23S46.77,2.97,31.21,2.97Z"/>
        <path class="cls-1" d="M43.37,35.64v-10.1c2.41-1.29,3.93-3.79,3.93-6.57,0-4.11-3.34-7.45-7.45-7.45-.15,0-.3,0-.46.01-1.92-2.56-4.92-4.07-8.15-4.07s-6.24,1.51-8.15,4.08c-.18-.01-.36-.02-.53-.02-4.1,0-7.45,3.34-7.45,7.45,0,3.17,2.05,6,4.98,7.03v8.56l-9.74,10.6s0,0,0,0c4.46,6.78,12.13,11.24,20.85,11.24s16.39-4.47,20.85-11.24c0,0,0,0,0,0l-8.69-9.52ZM21.44,24.07c-2.38-.52-4.1-2.66-4.1-5.1,0-2.88,2.34-5.22,5.22-5.22.3,0,.59.02.87.07l.73.13.4-.62c1.47-2.28,3.97-3.64,6.69-3.64s5.21,1.36,6.69,3.63l.39.61.71-.11c.27-.04.54-.06.82-.06,2.88,0,5.22,2.34,5.22,5.22,0,2.13-1.27,4.02-3.24,4.83l-.69.29v9.11l-8.99-9.84-7.27,8.24-1.31-.82-1.26,1.37v-7.87l-.88-.19ZM34.84,43.27l-5.17-3.7-5.72,5.01.51-5.52-9.96,5.09,6.91-8.28,1.86-2.23.32-.39.31.39,1.21,1.5,1.14-1.5,4.96-6.49.73,4.8,1.23-.63,1.6,2.33,1.53,2.23,3.3,4.8-5.85-3.86,1.09,6.47Z"/>
      </g>
      <g>
        <path class="cls-1" d="M74.39,46.09v-29.77h5.61v29.77h-5.61ZM76.42,21.72v-5.41h17.92v5.41h-17.92ZM76.42,34.01v-5.41h15.67v5.41h-15.67ZM76.42,46.09v-5.41h17.92v5.41h-17.92Z"/>
        <path class="cls-1" d="M106.3,46.09l-9.91-29.77h5.77l6.33,19.86,6.33-19.86h5.77l-9.91,29.77h-4.38Z"/>
        <path class="cls-1" d="M124.27,46.09v-29.77h5.61v29.77h-5.61ZM126.3,21.72v-5.41h17.92v5.41h-17.92ZM126.3,34.01v-5.41h15.67v5.41h-15.67ZM126.3,46.09v-5.41h17.92v5.41h-17.92Z"/>
        <path class="cls-1" d="M149.34,46.09v-29.79h5.61v29.79h-5.61ZM151.57,34.11v-5.41h10.36c.87,0,1.57-.32,2.1-.96s.8-1.49.81-2.54c0-1.05-.26-1.9-.79-2.54s-1.23-.96-2.12-.96h-10.36v-5.41h10.81c1.65,0,3.1.37,4.33,1.11s2.19,1.77,2.88,3.11,1.02,2.9,1.02,4.69-.34,3.35-1.03,4.69c-.69,1.34-1.65,2.38-2.88,3.11s-2.67,1.11-4.32,1.11h-10.81ZM165.07,46.09l-7.23-12.9,6-.94,8.03,13.84h-6.8Z"/>
        <path class="cls-1" d="M176.68,46.09v-29.77h5.61v29.77h-5.61ZM178.7,21.72v-5.41h17.92v5.41h-17.92ZM178.7,34.01v-5.41h15.67v5.41h-15.67ZM178.7,46.09v-5.41h17.92v5.41h-17.92Z"/>
        <path class="cls-1" d="M211.1,46.4c-1.42,0-2.81-.14-4.17-.43s-2.63-.71-3.82-1.26-2.26-1.22-3.21-2l2.6-4.63c1.15.94,2.47,1.67,3.97,2.18,1.5.51,3.04.77,4.63.77,1.83,0,3.25-.31,4.26-.93s1.52-1.5,1.52-2.63v-.02c0-.86-.25-1.52-.76-1.98s-1.17-.8-2-1.01-1.72-.4-2.69-.55c-1.16-.18-2.33-.4-3.52-.67s-2.28-.69-3.28-1.27-1.8-1.41-2.41-2.49-.91-2.52-.91-4.32v-.02c0-2.91.96-5.16,2.87-6.75s4.61-2.39,8.11-2.39c1.61,0,3.25.27,4.91.81s3.21,1.31,4.65,2.3l-2.38,4.75c-1.15-.81-2.34-1.42-3.59-1.85s-2.45-.65-3.59-.65c-1.72,0-3.05.28-3.99.85s-1.41,1.36-1.41,2.39v.02c0,.96.28,1.68.84,2.17s1.29.86,2.19,1.1,1.87.46,2.91.67c1.15.22,2.29.49,3.42.81s2.17.78,3.11,1.38,1.69,1.43,2.25,2.48.84,2.42.84,4.1v.04c0,2.87-.99,5.09-2.97,6.67s-4.77,2.37-8.38,2.37Z"/>
        <path class="cls-1" d="M223.47,21.72v-5.41h21.83v5.41h-21.83ZM231.58,46.09v-27.34h5.61v27.34h-5.61Z"/>
      </g>
    </g>
  </g>
</svg>