<?xml version="1.0" encoding="UTF-8"?>
<svg id="_Слой_2" data-name="Слой_2" xmlns="http://www.w3.org/2000/svg" viewBox="0 0 140.8 164.12">
  <defs>
    <style>
      .cls-1 {
        fill: #f28b41;
      }
    </style>
  </defs>
  <g id="_Слой_1-2" data-name="Слой_1">
    <g>
      <g>
        <path class="cls-1" d="M70.4,126.21c-34.8,0-63.11-28.31-63.11-63.11S35.6,0,70.4,0s63.11,28.31,63.11,63.11-28.31,63.11-63.11,63.11ZM70.4,6.01c-31.48,0-57.1,25.61-57.1,57.1s25.61,57.1,57.1,57.1,57.1-25.61,57.1-57.1S101.88,6.01,70.4,6.01Z"/>
        <path class="cls-1" d="M95,72.07v-20.42c4.88-2.6,7.96-7.66,7.96-13.28,0-8.31-6.76-15.06-15.06-15.06-.31,0-.62,0-.92.02-3.88-5.18-9.95-8.23-16.49-8.23s-12.61,3.06-16.49,8.25c-.36-.03-.72-.04-1.08-.04-8.3,0-15.06,6.75-15.06,15.06,0,6.42,4.14,12.12,10.07,14.21v17.3l-19.7,21.43s0,0,0,0c9.02,13.7,24.54,22.74,42.17,22.74s33.15-9.04,42.17-22.74c0,0,0,0,0,0l-17.58-19.25ZM50.65,48.68c-4.81-1.04-8.3-5.39-8.3-10.31,0-5.82,4.74-10.55,10.55-10.55.61,0,1.2.05,1.77.15l1.47.26.81-1.25c2.97-4.61,8.03-7.36,13.52-7.36s10.53,2.74,13.52,7.34l.8,1.22,1.44-.23c.54-.08,1.1-.13,1.65-.13,5.82,0,10.55,4.73,10.55,10.55,0,4.3-2.58,8.14-6.55,9.77l-1.4.58v18.42l-18.18-19.91-14.7,16.66-2.64-1.67-2.54,2.76v-15.92l-1.77-.38ZM77.75,87.5l-10.46-7.48-11.58,10.13,1.03-11.17-20.14,10.28,13.97-16.75,3.76-4.51.65-.78.63.78,2.46,3.03,2.31-3.03,10.03-13.13,1.47,9.7,2.49-1.27,3.23,4.7,3.1,4.51,6.67,9.71-11.82-7.8,2.2,13.09Z"/>
      </g>
      <g>
        <path class="cls-1" d="M0,163.87v-24.53h4.62v24.53H0ZM1.67,143.79v-4.45h14.76v4.45H1.67ZM1.67,153.91v-4.45h12.91v4.45H1.67ZM1.67,163.87v-4.45h14.76v4.45H1.67Z"/>
        <path class="cls-1" d="M26.28,163.87l-8.16-24.53h4.76l5.21,16.36,5.21-16.36h4.76l-8.16,24.53h-3.61Z"/>
        <path class="cls-1" d="M41.09,163.87v-24.53h4.62v24.53h-4.62ZM42.77,143.79v-4.45h14.76v4.45h-14.76ZM42.77,153.91v-4.45h12.91v4.45h-12.91ZM42.77,163.87v-4.45h14.76v4.45h-14.76Z"/>
        <path class="cls-1" d="M61.74,163.87v-24.55h4.62v24.55h-4.62ZM63.58,154v-4.45h8.54c.72,0,1.3-.26,1.73-.79s.66-1.23.67-2.09c0-.87-.22-1.56-.65-2.09s-1.02-.79-1.75-.79h-8.54v-4.45h8.91c1.36,0,2.55.3,3.57.91s1.81,1.46,2.37,2.56.84,2.39.84,3.86-.28,2.76-.85,3.86-1.36,1.96-2.37,2.56-2.2.91-3.56.91h-8.91ZM74.7,163.87l-5.96-10.63,4.94-.78,6.61,11.4h-5.6Z"/>
        <path class="cls-1" d="M84.26,163.87v-24.53h4.62v24.53h-4.62ZM85.93,143.79v-4.45h14.76v4.45h-14.76ZM85.93,153.91v-4.45h12.91v4.45h-12.91ZM85.93,163.87v-4.45h14.76v4.45h-14.76Z"/>
        <path class="cls-1" d="M112.62,164.12c-1.17,0-2.31-.12-3.43-.35s-2.17-.58-3.15-1.04-1.86-1-2.65-1.64l2.14-3.81c.94.78,2.04,1.37,3.27,1.8s2.51.63,3.81.63c1.51,0,2.68-.26,3.51-.77s1.25-1.23,1.25-2.17v-.02c0-.71-.21-1.25-.62-1.63s-.96-.66-1.64-.84-1.42-.33-2.22-.46c-.96-.15-1.92-.33-2.9-.55s-1.88-.57-2.7-1.05-1.48-1.16-1.98-2.05-.75-2.07-.75-3.56v-.02c0-2.4.79-4.25,2.36-5.56s3.8-1.97,6.68-1.97c1.33,0,2.68.22,4.05.67s2.65,1.08,3.83,1.9l-1.96,3.91c-.94-.66-1.93-1.17-2.96-1.53s-2.02-.53-2.96-.53c-1.42,0-2.51.23-3.29.7s-1.16,1.12-1.16,1.97v.02c0,.79.23,1.38.69,1.79s1.06.71,1.81.9,1.54.38,2.4.55c.94.18,1.88.4,2.82.67s1.79.64,2.56,1.14,1.39,1.18,1.86,2.04.69,1.99.69,3.37v.03c0,2.36-.82,4.19-2.45,5.49s-3.93,1.95-6.9,1.95Z"/>
        <path class="cls-1" d="M122.81,143.79v-4.45h17.98v4.45h-17.98ZM129.49,163.87v-22.52h4.62v22.52h-4.62Z"/>
      </g>
    </g>
  </g>
</svg>