<svg width="23" height="33" viewBox="0 0 23 33" fill="none" xmlns="http://www.w3.org/2000/svg">
<g clip-path="url(#clip0_28_204)">
<path d="M15.1377 25.5005V31.4999C15.1244 32.0466 14.6863 32.4867 14.1447 32.5H8.17664C7.9154 32.4929 7.66677 32.3856 7.48185 32.2001C7.29693 32.0146 7.18977 31.765 7.1824 31.5025V25.5018C7.19567 24.9551 7.63372 24.5163 8.17664 24.503H14.1501C14.6943 24.5163 15.1323 24.9564 15.1456 25.5018L15.1377 25.5005ZM23 10.5026C23.002 12.0845 22.5594 13.6348 21.723 14.9751L21.7429 14.9405C21.3608 15.4931 20.9047 15.9903 20.3876 16.418L20.3743 16.4287C19.9482 16.8047 19.4823 17.1621 18.9912 17.4875L18.9434 17.5168C18.5779 17.7417 18.0717 18.0373 17.4248 18.4036C16.7407 18.7948 16.1603 19.3454 15.7323 20.0091L15.7204 20.0278C15.3483 20.5085 15.1122 21.0811 15.0368 21.6853L15.0354 21.7013C15.0309 21.9993 14.925 22.2868 14.7354 22.5161L14.7368 22.5134C14.6602 22.6292 14.557 22.7247 14.436 22.792C14.3149 22.8594 14.1795 22.8964 14.0412 22.9001H8.06779C7.92997 22.8908 7.79747 22.843 7.68516 22.7622C7.57285 22.6814 7.48517 22.5708 7.43196 22.4427L7.43063 22.4374C7.26269 22.154 7.17246 21.8311 7.16913 21.5013V20.3745C7.19913 18.9118 7.77692 17.5143 8.78726 16.4607L8.78593 16.462C9.7503 15.3305 10.9412 14.4158 12.281 13.7777L12.3448 13.751C13.1302 13.4351 13.8416 12.9588 14.4341 12.3521L14.4354 12.3508C14.87 11.8146 15.0918 11.1359 15.058 10.4452V10.4519C15.0359 10.0729 14.9195 9.70561 14.7193 9.38361C14.5192 9.06162 14.2417 8.79527 13.9124 8.60901L13.9005 8.60368C13.1126 8.06277 12.1758 7.78344 11.2218 7.80491H11.2257C10.2699 7.76699 9.32538 8.02385 8.51912 8.54101L8.5377 8.529C7.55695 9.37025 6.67473 10.3209 5.90807 11.3627L5.87489 11.4094C5.78614 11.5317 5.67023 11.6315 5.53635 11.701C5.40247 11.7704 5.25432 11.8076 5.10365 11.8094C4.88003 11.8021 4.66294 11.7319 4.47711 11.6067L4.48109 11.6094L0.400587 8.485C0.197268 8.33669 0.0592439 8.11484 0.0156336 7.86625L0.0143062 7.86092C-0.0272316 7.61742 0.0224176 7.36708 0.153686 7.15817L0.151031 7.16217C2.35057 3.163 6.52134 0.5 11.3133 0.5C11.4496 0.5 11.5855 0.502223 11.7209 0.506668H11.701C13.0992 0.514869 14.4834 0.787192 15.7815 1.30943L15.7058 1.28276C17.027 1.78501 18.2619 2.49187 19.3655 3.37769L19.339 3.35636C20.4064 4.21694 21.2934 5.2816 21.9487 6.48875L21.9752 6.54342C22.6164 7.68623 22.9947 9.05174 22.996 10.5053L23 10.5026Z" fill="#FD8D3C"/>
</g>
<defs>
<clipPath id="clip0_28_204">
<rect width="23" height="32" fill="white" transform="translate(0 0.5)"/>
</clipPath>
</defs>
</svg>
