<svg width="138" height="130" viewBox="0 0 138 130" fill="none" xmlns="http://www.w3.org/2000/svg">
<path d="M117.567 50.5V29.7333C117.567 21.4267 117.567 17.2733 115.95 14.099C114.528 11.3081 112.259 9.03893 109.468 7.61683C106.294 6 102.14 6 93.8338 6H30.0505C21.7438 6 17.5905 6 14.4161 7.61683C11.6252 9.03893 9.35607 11.3081 7.93397 14.099C6.31714 17.2733 6.31714 21.4267 6.31714 29.7333V71.2667C6.31714 79.5733 6.31714 83.7267 7.93397 86.901C9.35607 89.6919 11.6252 91.9611 14.4161 93.3832C17.5905 95 21.7438 95 30.0505 95H80.4838M35.9838 65.3333H65.6505M35.9838 35.6667H87.9005" stroke="#FD8D3C" stroke-width="11" stroke-linecap="round"/>
<path d="M110.15 94.9165C118.159 94.9165 124.65 88.4246 124.65 80.4165C124.65 72.4084 118.159 65.9165 110.15 65.9165C102.142 65.9165 95.6504 72.4084 95.6504 80.4165C95.6504 88.4246 102.142 94.9165 110.15 94.9165Z" stroke="#FD8D3C" stroke-width="11"/>
<path d="M131.65 123.917C131.65 123.917 126.275 112.917 110.15 112.917C94.0254 112.917 88.6504 123.917 88.6504 123.917" stroke="#FD8D3C" stroke-width="11" stroke-linecap="round"/>
</svg>
