<svg width="46" height="45" viewBox="0 0 46 45" fill="none" xmlns="http://www.w3.org/2000/svg">
<path d="M37.8969 24.3172C37.8969 33.66 31.357 38.3313 23.5838 41.0408C23.1767 41.1787 22.7346 41.1721 22.3318 41.0221C14.5399 38.3313 8 33.66 8 24.3172V11.2373C8 10.7417 8.19687 10.2664 8.54729 9.91601C8.89771 9.56558 9.37298 9.36872 9.86856 9.36872C13.6057 9.36872 18.2771 7.12645 21.5283 4.28624C21.9242 3.94803 22.4278 3.76221 22.9485 3.76221C23.4691 3.76221 23.9727 3.94803 24.3686 4.28624C27.6385 7.14513 32.2912 9.36872 36.0283 9.36872C36.5239 9.36872 36.9992 9.56558 37.3496 9.91601C37.7 10.2664 37.8969 10.7417 37.8969 11.2373V24.3172Z" stroke="white" stroke-width="5" stroke-linecap="round" stroke-linejoin="round"/>
</svg>
